<?xml version="1.0" standalone="no"?>
<!DOCTYPE svg PUBLIC "-//W3C//DTD SVG 20010904//EN"
 "http://www.w3.org/TR/2001/REC-SVG-20010904/DTD/svg10.dtd">
<svg version="1.0" xmlns="http://www.w3.org/2000/svg"
 width="502.000000pt" height="825.000000pt" viewBox="0 0 502.000000 825.000000"
 preserveAspectRatio="xMidYMid meet">

<g transform="translate(0.000000,825.000000) scale(0.100000,-0.100000)"
fill="#000000" stroke="none">
<path d="M2153 8241 c-23 -4 -71 -22 -108 -41 -79 -40 -123 -91 -188 -218 -65
-126 -81 -188 -80 -307 1 -212 74 -358 211 -426 36 -18 56 -21 116 -17 62 4
82 10 132 41 105 63 138 99 194 207 60 117 80 198 80 326 0 208 -77 354 -226
423 -45 22 -61 23 -131 12z"/>
<path d="M1425 8107 c-171 -49 -248 -333 -146 -536 39 -76 86 -116 155 -132
105 -23 200 31 256 146 44 91 49 272 10 362 -30 68 -104 141 -163 158 -58 17
-58 17 -112 2z"/>
<path d="M921 7985 c-56 -17 -94 -54 -121 -117 -48 -111 -46 -227 4 -340 30
-66 69 -103 124 -118 87 -23 162 27 208 139 37 90 39 218 4 301 -27 65 -81
126 -119 133 -14 3 -33 8 -41 11 -8 2 -35 -1 -59 -9z"/>
<path d="M471 7825 c-182 -57 -225 -393 -69 -542 96 -92 235 -45 295 100 21
51 26 79 26 152 0 77 -3 99 -27 151 -30 68 -86 128 -128 138 -14 3 -32 8 -40
10 -7 3 -33 -1 -57 -9z"/>
<path d="M90 7430 c-50 -26 -80 -85 -87 -170 -6 -76 8 -129 54 -203 61 -96
181 -104 245 -15 20 29 23 45 23 123 0 84 -3 96 -34 159 -27 52 -44 73 -75 90
-59 34 -86 37 -126 16z"/>
<path d="M1145 7359 c-88 -11 -295 -62 -378 -94 -90 -33 -254 -130 -337 -198
-99 -81 -196 -216 -269 -374 -49 -108 -62 -149 -82 -258 -21 -117 -23 -158
-23 -405 1 -287 9 -380 59 -670 80 -462 96 -566 115 -755 23 -222 22 -267 -6
-535 -13 -122 -14 -171 -4 -310 17 -231 47 -371 107 -490 125 -250 404 -411
711 -410 164 1 260 31 365 113 188 147 312 458 293 737 -11 172 -42 268 -171
525 -63 127 -161 320 -218 430 -57 110 -114 234 -128 275 -56 175 -14 322 143
501 95 109 184 172 480 339 245 138 313 201 409 375 46 82 59 117 72 191 29
158 20 255 -39 432 -54 161 -144 280 -296 389 -150 107 -342 174 -552 193
-118 11 -156 11 -251 -1z"/>
<path d="M2740 5386 c-92 -35 -154 -97 -207 -212 -26 -56 -28 -67 -28 -199 0
-85 5 -162 14 -195 22 -90 97 -221 165 -290 84 -85 127 -103 246 -104 94 -1
97 0 145 34 107 76 165 210 165 379 0 209 -73 393 -198 498 -76 64 -111 82
-187 93 -82 11 -71 12 -115 -4z"/>
<path d="M3490 5261 c-148 -45 -228 -208 -200 -408 17 -126 89 -228 182 -259
43 -14 58 -15 109 -4 52 11 64 19 99 60 22 27 52 74 67 107 24 52 27 69 27
173 -1 112 -2 117 -37 186 -43 85 -89 126 -158 142 -56 13 -54 13 -89 3z"/>
<path d="M4003 5136 c-52 -17 -85 -53 -125 -135 -28 -57 -31 -74 -31 -150 1
-102 27 -183 79 -241 90 -100 235 -59 300 85 36 79 38 210 5 295 -23 62 -90
134 -133 144 -14 3 -32 8 -40 10 -7 3 -32 -1 -55 -8z"/>
<path d="M4464 4976 c-62 -20 -119 -70 -144 -128 -83 -193 -9 -418 151 -458
85 -21 172 36 216 143 21 51 26 79 26 152 0 77 -3 99 -27 151 -30 68 -86 128
-128 138 -14 3 -32 8 -40 10 -7 3 -32 -1 -54 -8z"/>
<path d="M4858 4590 c-99 -30 -151 -107 -173 -257 -12 -77 36 -171 97 -192 45
-16 74 -14 117 8 54 28 88 79 107 158 29 124 2 225 -73 274 -31 21 -35 21 -75
9z"/>
<path d="M3505 4501 c-55 -10 -139 -32 -187 -49 -238 -85 -397 -212 -500 -403
-147 -270 -153 -497 -19 -733 99 -176 206 -269 473 -414 414 -225 624 -488
579 -728 -18 -97 -50 -172 -259 -592 -115 -230 -203 -419 -221 -475 -64 -199
-68 -425 -11 -602 46 -142 71 -194 134 -279 146 -197 363 -263 671 -205 275
52 469 224 568 504 40 113 53 186 67 375 11 141 10 187 -3 315 -29 276 -30
318 -7 540 21 207 46 375 94 630 52 274 69 484 70 830 1 298 -1 326 -21 411
-24 98 -77 243 -116 320 -110 214 -401 424 -707 512 -198 57 -437 74 -605 43z"/>
</g>
</svg>
